<svg
  width="1920"
  height="1080"
  viewBox="-17703 4943 1920 1080"
  xmlns="http://www.w3.org/2000/svg"
  xmlns:xlink="http://www.w3.org/1999/xlink"
  fill="none"
  version="1.1"
  style="-webkit-print-color-adjust:exact"
>

  <defs>

    <linearGradient id="cornerLight" x1="0%" y1="0%" x2="100%" y2="100%">
      <stop offset="0%" stop-color="white" stop-opacity="0.4"/>
      <stop offset="40%" stop-color="white" stop-opacity="0.15"/>
      <stop offset="100%" stop-color="white" stop-opacity="0"/>
    </linearGradient>

    <linearGradient id="diagonalLight" x1="100%" y1="0%" x2="0%" y2="100%">
      <stop offset="0%" stop-color="white" stop-opacity="0.5"/>
      <stop offset="50%" stop-color="white" stop-opacity="0.2"/>
      <stop offset="100%" stop-color="white" stop-opacity="0"/>
    </linearGradient>

    <filter id="lightBlur">
      <feGaussianBlur stdDeviation="60"/>
    </filter>

    <clipPath id="frame-clip-60f01ab3-8094-80b7-8007-323a32b843ee-render-122">
      <rect x="-17703" y="4943" width="1920" height="1080"/>
    </clipPath>

    <filter id="blur1">
      <feGaussianBlur in="SourceGraphic" stdDeviation="5"/>
    </filter>

  </defs>

  <g clip-path="url(#frame-clip-60f01ab3-8094-80b7-8007-323a32b843ee-render-122)">

    <rect
      x="-17703"
      y="4943"
      width="1920"
      height="1080"
      fill="#090909"
    />

    <g filter="url(#lightBlur)" opacity="0.5" pointer-events="none">

      <rect
        x="-18200"
        y="4700"
        width="2800"
        height="180"
        fill="url(#cornerLight)"
        transform="rotate(12 -18200 4700)"
        opacity="0.5"
      />

      <rect
        x="-18300"
        y="5050"
        width="2600"
        height="120"
        fill="url(#cornerLight)"
        transform="rotate(12 -18300 5050)"
        opacity="0.7"
      />

      <rect
        x="-18400"
        y="5350"
        width="2400"
        height="90"
        fill="url(#cornerLight)"
        transform="rotate(12 -18400 5350)"
        opacity="0.5"
      />

      <rect
        x="-16300"
        y="4800"
        width="2200"
        height="120"
        fill="url(#diagonalLight)"
        transform="rotate(25 -15783 5483)"
        opacity="0.5"
      />

    </g>

    <g transform="translate(-17745 5870) scale(0.10) translate(100 100)">

      <path
        d="M762,60 L719,144 L734,356 L672,592 L706,694 L623,536 L638,224 L577,384 L560,569 L586,691 L764,871 L942,685 L964,518 L886,224 L903,531 L817,695 L852,592 L789,357 L804,144 Z"
        fill="none"
        stroke="#e6c679"
        stroke-width="32"
        stroke-opacity="0.18"
        filter="url(#blur1)"
      >
        <animate
          attributeName="stroke-opacity"
          values="0.15;0.25;0.15"
          dur="8s"
          repeatCount="indefinite"
          calcMode="spline"
          keySplines="0.4 0 0.6 1; 0.4 0 0.6 1"
        />
      </path>

      <path
        d="M762,60 L719,144 L734,356 L672,592 L706,694 L623,536 L638,224 L577,384 L560,569 L586,691 L764,871 L942,685 L964,518 L886,224 L903,531 L817,695 L852,592 L789,357 L804,144 Z"
        fill="none"
        stroke="#c9a94b"
        stroke-width="8"
      />

      <path
        d="M623,536 Q600,600 664,760"
        fill="none"
        stroke="#bfa64b"
        stroke-width="7"
        stroke-linecap="round"
        stroke-opacity="0.55"
      />

      <path
        d="M903,531 Q930,600 866,760"
        fill="none"
        stroke="#bfa64b"
        stroke-width="7"
        stroke-linecap="round"
        stroke-opacity="0.55"
      />

      <path
        d="M586,691 Q764,900 942,685"
        fill="none"
        stroke="#e6c679"
        stroke-width="6"
        stroke-opacity="0.22"
      />

      <text
        x="764"
        y="970"
        text-anchor="middle"
        font-family="Arial, Helvetica, sans-serif"
        font-size="110"
        fill="white"
        fill-opacity="0.86"
        letter-spacing="18"
        style="text-transform: lowercase;"
      >
        ariseth
      </text>

    </g>
  </g>
</svg>
