<?xml version="1.0" encoding="UTF-8"?>
<svg xmlns="http://www.w3.org/2000/svg"
     width="800" height="533"
     viewBox="0 0 1536 1024"
     style="background-color:#ffffff">

  <defs>
    <radialGradient id="animBg" cx="768" cy="512" r="600" gradientUnits="userSpaceOnUse">
      <stop offset="0%" stop-color="#00e5ff" stop-opacity="0.1">
        <animate attributeName="stop-opacity"
                 values="0.1;0.3;0.1"
                 dur="10s" repeatCount="indefinite"/>
      </stop>
      <stop offset="100%" stop-color="#00e5ff" stop-opacity="0"/>
      <animate attributeName="r"
               values="600;900;600"
               dur="10s" repeatCount="indefinite"/>
    </radialGradient>
  </defs>

  <rect width="1536" height="1024" fill="url(#animBg)" />z

  <g transform="translate(0 1024) scale(0.10) translate(-450 -2150)">
    <path
      d="M762,60 L719,144 L734,356 L672,592 L706,694 L623,536 L638,224 L577,384 L560,569 L586,691 L764,871 L942,685 L964,518 L886,224 L903,531 L817,695 L852,592 L789,357 L804,144 Z"
      fill="none"
      stroke="#e6c679"
      stroke-width="32"
      stroke-opacity="0.18"
      filter="url(#blur1)"
    />
    <path
      d="M762,60 L719,144 L734,356 L672,592 L706,694 L623,536 L638,224 L577,384 L560,569 L586,691 L764,871 L942,685 L964,518 L886,224 L903,531 L817,695 L852,592 L789,357 L804,144 Z"
      fill="none"
      stroke="#c9a94b"
      stroke-width="8"
    />
    <path
      d="M623,536 Q600,600 664,760"
      fill="none"
      stroke="#bfa64b"
      stroke-width="7"
      stroke-linecap="round"
      stroke-opacity="0.55"
    />
    <path
      d="M903,531 Q930,600 866,760"
      fill="none"
      stroke="#bfa64b"
      stroke-width="7"
      stroke-linecap="round"
      stroke-opacity="0.55"
    />
    <path
      d="M586,691 Q764,900 942,685"
      fill="none"
      stroke="#e6c679"
      stroke-width="6"
      stroke-opacity="0.22"
    />
    <text
      x="764" y="970"
      text-anchor="middle"
      font-family="Arial, Helvetica, sans-serif"
      font-size="110"
      fill="black"
      fill-opacity="0.86"
      letter-spacing="18"
      style="text-transform: lowercase;"
    >ariseth</text>
  </g>
</svg>
